<?xml version="1.0" encoding="UTF-8" standalone="no"?>
<svg
   xmlns:dc="http://purl.org/dc/elements/1.1/"
   xmlns:cc="http://creativecommons.org/ns#"
   xmlns:rdf="http://www.w3.org/1999/02/22-rdf-syntax-ns#"
   xmlns:svg="http://www.w3.org/2000/svg"
   xmlns="http://www.w3.org/2000/svg"
   viewBox="0 0 673.01251 178.02499"
   height="55"
   width="210"
   xml:space="preserve"
   version="1.1"
   id="svg2"><metadata
     id="metadata8"><rdf:RDF><cc:Work
         rdf:about=""><dc:format>image/svg+xml</dc:format><dc:type
           rdf:resource="http://purl.org/dc/dcmitype/StillImage" /></cc:Work></rdf:RDF></metadata><defs
     id="defs6" /><g
     transform="matrix(1.25,0,0,-1.25,0,178.025)"
     id="g10"><g
       transform="scale(0.1,0.1)"
       id="g12"><path
         id="path14"
         style="fill:#FFF;fill-opacity:1;fill-rule:nonzero;stroke:none"
         d="m 4017.43,418.422 c 0,-145.863 -23.05,-214.961 -122.85,-214.961 -99.8,0 -122.84,69.098 -122.84,214.961 l 0,14.777 -253.36,0 0,-32.027 C 3518.38,186.18 3589.38,0 3881.15,0 c 280.24,0 412.67,118.988 412.67,410.762 l 0,22.437 -276.39,0 0,-14.777 z m -913.64,-391.5509 276.4,0 0,406.3279 -276.4,0 0,-406.3279 z m 2026.92,1370.4889 0,-408.551 142.38,0 c 22.84,0 41.23,-19.969 41.23,-44.496 l 0,-466.622 c 0,-24.511 -18.39,-44.492 -41.23,-44.492 l -346.81,0 143.03,-406.3279 314.78,0 0,1370.4889 -253.38,0 z m -2716.03,-598.872 -115.16,0 0,395.402 130.52,0 c 124.76,0 191.94,-63.34 191.94,-190.02 0,-147.804 -74.86,-205.382 -207.3,-205.382 z m 476.03,-514.41 c -0.75,56.602 -2.52,105.922 -6.18,149.121 l -205.54,0 c -22.71,0 -41.22,19.981 -41.22,44.492 l 0,466.622 c 0,24.527 18.51,44.496 41.22,44.496 l 216.77,0 c 1.62,17.831 2.62,36.191 2.62,55.371 0,234.17 -138.19,353.18 -364.69,353.18 l -510.57,0 0,-1370.4889 276.4,0 0,579.6799 147.79,0 c 111.33,0 159.32,-65.266 163.15,-172.754 l 7.68,-262.965 c 1.93,-53.742 7.68,-105.5703 34.55,-143.9609 l 299.44,0 0,11.5195 c -51.83,26.8711 -59.51,101.7304 -61.42,245.6874 z m 1583.56,-257.2069 253.38,0 0,406.3279 -253.38,0 0,-406.3279 z M 1393.53,203.461 c -163.16,0 -190.03,140.117 -190.03,508.644 0,366.625 26.87,508.665 190.03,508.665 163.15,0 190.02,-142.04 190.02,-508.665 0,-368.527 -26.87,-508.644 -190.02,-508.644 z m 0,1220.769 c -414.604,0 -466.425,-295.6 -466.425,-712.125 C 927.105,295.602 978.926,0 1393.53,0 c 414.6,0 466.43,295.602 466.43,712.105 0,416.525 -51.83,712.125 -466.43,712.125 z m 1710.26,-435.421 276.4,0 0,408.551 -276.4,0 0,-408.551 z m 913.64,0 276.39,0 0,408.551 -276.39,0 0,-408.551 z m 775.46,408.551 -318.62,0 0,-408.551 464,0 -145.38,408.551 z M 499.055,418.422 c 0,-145.863 -23.032,-214.961 -122.844,-214.961 -99.805,0 -122.848,69.098 -122.848,214.961 l 0,42.25 -253.363,0 0,-59.5 C 0,186.18 71.0273,0 362.773,0 643.012,0 775.461,118.988 775.461,410.762 l 0,986.598 -276.406,0 0,-978.938" /><path
         id="path16"
         style="fill:#fff;fill-opacity:1;fill-rule:nonzero;stroke:none"
         d="m 2787.22,652.379 0,-9.16 c 0,-29.16 7.28,-47.871 36.46,-47.871 16.88,0 33.01,12.179 33.01,38.3 0,28.321 -12.68,38.77 -49.14,53.125 -49.13,19.161 -71.78,42.239 -71.78,94.047 0,60.52 32.64,91.434 84.86,91.434 49.13,0 84.82,-23.941 84.82,-83.602 l 0,-8.703 -52.97,0 c 0,29.172 -8.84,46.156 -29.95,46.156 -24.95,0 -31.49,-17.855 -31.49,-36.136 0,-19.16 5,-30.918 28.43,-42.239 l 42.6,-20.902 c 41.46,-20.461 52.22,-44.398 52.22,-82.301 0,-65.742 -35.32,-95.332 -95.22,-95.332 -62.57,0 -87.16,33.086 -87.16,90.567 l 0,12.617 55.31,0" /><path
         id="path18"
         style="fill:#fff;fill-opacity:1;fill-rule:nonzero;stroke:none"
         d="m 3059.04,761.227 c 0,45.285 -8.06,64.878 -33.01,64.878 -28,0 -34.56,-31.789 -34.56,-119.738 0,-94.054 11.52,-111.019 35.34,-111.019 19.96,0 34.54,11.738 34.54,78.8 l 55.29,0 c 0,-67.062 -14.6,-124.953 -87.16,-124.953 -82.9,0 -93.26,67.051 -93.26,161.524 0,94.484 10.36,161.535 93.26,161.535 79.09,0 84.86,-65.742 84.86,-111.027 l -55.3,0" /><path
         id="path20"
         style="fill:#fff;fill-opacity:1;fill-rule:nonzero;stroke:none"
         d="m 3148.16,866.152 55.28,0 0,-118.859 64.51,0 0,118.859 55.25,0 0,-310.882 -55.25,0 0,138.039 -64.51,0 0,-138.039 -55.28,0 0,310.882" /><path
         id="path22"
         style="fill:#fff;fill-opacity:1;fill-rule:nonzero;stroke:none"
         d="m 3416.92,730.309 23.05,0 c 26.48,0 41.45,13.07 41.45,46.586 0,28.742 -13.42,43.113 -38.37,43.113 l -26.13,0 0,-89.699 z m -55.27,135.843 102.11,0 c 45.3,0 72.96,-26.984 72.96,-80.109 0,-41.359 -14.6,-69.23 -45.68,-76.625 l 0,-0.875 c 37.61,-5.656 43.37,-29.172 44.13,-94.922 0.4,-32.648 1.92,-49.629 12.27,-55.734 l 0,-2.617 -59.86,0 c -5.38,8.722 -6.54,20.48 -6.92,32.656 l -1.55,59.66 c -0.75,24.394 -10.36,39.187 -32.61,39.187 l -29.58,0 0,-131.503 -55.27,0 0,310.882" /><path
         id="path24"
         style="fill:#fff;fill-opacity:1;fill-rule:nonzero;stroke:none"
         d="m 3577.83,555.27 55.3008,0 0,310.883 -55.3008,0 0,-310.883 z" /><path
         id="path26"
         style="fill:#fff;fill-opacity:1;fill-rule:nonzero;stroke:none"
         d="m 3815.87,866.152 0,-223.793 c 0,-66.171 -26.48,-93.164 -82.52,-93.164 -58.36,0 -72.58,42.227 -72.58,91.008 l 0,13.485 50.69,0 0,-9.598 c 0,-33.086 4.6,-48.742 24.55,-48.742 19.98,0 24.59,15.656 24.59,48.742 l 0,222.062 55.27,0" /><path
         id="path28"
         style="fill:#fff;fill-opacity:1;fill-rule:nonzero;stroke:none"
         d="m 3893.08,866.152 38.77,-229.886 1.15,0 40.69,229.886 57.2,0 -62.96,-310.882 -71.01,0 -62.96,310.882 59.12,0" /><path
         id="path30"
         style="fill:#fff;fill-opacity:1;fill-rule:nonzero;stroke:none"
         d="m 4204.46,866.152 0,-51.371 -97.92,0 0,-73.148 92.16,0 0,-51.383 -92.16,0 0,-83.574 101.74,0 0,-51.406 -156.99,0 0,310.882 153.17,0" /><path
         id="path32"
         style="fill:#fff;fill-opacity:1;fill-rule:nonzero;stroke:none"
         d="m 4291.26,730.309 23.04,0 c 26.47,0 41.45,13.07 41.45,46.586 0,28.742 -13.45,43.113 -38.39,43.113 l -26.1,0 0,-89.699 z m -55.29,135.843 102.13,0 c 45.28,0 72.93,-26.984 72.93,-80.109 0,-41.359 -14.58,-69.23 -45.69,-76.625 l 0,-0.875 c 37.62,-5.656 43.38,-29.172 44.14,-94.922 0.39,-32.648 1.95,-49.629 12.29,-55.734 l 0,-2.617 -59.89,0 c -5.36,8.722 -6.51,20.48 -6.9,32.656 l -1.53,59.66 c -0.77,24.394 -10.37,39.187 -32.64,39.187 l -29.55,0 0,-131.503 -55.29,0 0,310.882" /><path
         id="path34"
         style="fill:#fff;fill-opacity:1;fill-rule:nonzero;stroke:none"
         d="m 4494.01,652.379 0,-9.16 c 0,-29.16 7.27,-47.871 36.47,-47.871 16.87,0 33.01,12.179 33.01,38.3 0,28.321 -12.68,38.77 -49.14,53.125 -49.14,19.161 -71.78,42.239 -71.78,94.047 0,60.52 32.61,91.434 84.82,91.434 49.14,0 84.84,-23.941 84.84,-83.602 l 0,-8.703 -52.97,0 c 0,29.172 -8.84,46.156 -29.93,46.156 -24.95,0 -31.49,-17.855 -31.49,-36.136 0,-19.16 4.99,-30.918 28.4,-42.239 l 42.61,-20.902 c 41.47,-20.461 52.21,-44.398 52.21,-82.301 0,-65.742 -35.31,-95.332 -95.19,-95.332 -62.59,0 -87.16,33.086 -87.16,90.567 l 0,12.617 55.3,0" /><path
         id="path36"
         style="fill:#fff;fill-opacity:1;fill-rule:nonzero;stroke:none"
         d="m 4648.75,866.152 55.27,0 0,-118.859 64.52,0 0,118.859 55.25,0 0,-310.882 -55.25,0 0,138.039 -64.52,0 0,-138.039 -55.27,0 0,310.882" /><path
         id="path38"
         style="fill:#fff;fill-opacity:1;fill-rule:nonzero;stroke:none"
         d="m 4949.76,595.348 c 32.65,0 38.01,31.777 38.01,115.371 0,83.16 -5.36,115.386 -38.01,115.386 -32.62,0 -38,-32.226 -38,-115.386 0,-83.594 5.38,-115.371 38,-115.371 z m 0,276.906 c 82.94,0 93.31,-67.051 93.31,-161.535 0,-94.473 -10.37,-161.524 -93.31,-161.524 -82.9,0 -93.28,67.051 -93.28,161.524 0,94.484 10.38,161.535 93.28,161.535" /><path
         id="path40"
         style="fill:#fff;fill-opacity:1;fill-rule:nonzero;stroke:none"
         d="m 5075.74,866.152 153.18,0 0,-51.371 -97.9,0 0,-73.148 92.13,0 0,-51.383 -92.13,0 0,-134.98 -55.28,0 0,310.882" /></g></g></svg>
